# xmcd
# 
# Track frame offsets:
#     150
#     24095
#     44210
#     59015
#     70285
#     89460
#     94042
#     112090
#     126270
#     143830
#     157255
# 
# Disc length: 2290
# 
# Revision: 3
# Processed by: cddbd v1.5.2PL0 Copyright (c) Steve Scherf et al.
# Submitted via: fre:ac v1.0.31
# 
DISCID=a508f00b
DTITLE=It's a Beautiful Day - Marrying Maiden
DYEAR=1970
DGENRE=Psychedelic Rock
TTITLE0=Don and Dewey
TTITLE1=The Dolphins
TTITLE2=Essence of Now
TTITLE3=Hoedown
TTITLE4=Soapstone Mountain
TTITLE5=Waiting for the Song
TTITLE6=Let a Woman Flow
TTITLE7=It Comes Right Down to You
TTITLE8=Good Lovin'
TTITLE9=Galileo
TTITLE10=Do You Remember the Sun?
EXTD=YEAR: 1970
EXTT0=
EXTT1=
EXTT2=
EXTT3=
EXTT4=
EXTT5=
EXTT6=
EXTT7=
EXTT8=
EXTT9=
EXTT10=
PLAYORDER=
